<svg id="Layer_1" data-name="Layer 1" xmlns="http://www.w3.org/2000/svg" xmlns:xlink="http://www.w3.org/1999/xlink" viewBox="0 0 2000 634"><defs><style>.cls-1{fill:#1a1a1a;}.cls-2{fill:url(#radial-gradient);}.cls-3{fill:url(#linear-gradient);}.cls-4{fill:url(#linear-gradient-2);}.cls-5{fill:url(#linear-gradient-3);}</style><radialGradient id="radial-gradient" cx="361.46" cy="444.44" r="187.81" gradientTransform="translate(879 588.13) rotate(147.81) scale(1 0.89)" gradientUnits="userSpaceOnUse"><stop offset="0" stop-color="#dfe2fe"/><stop offset="0.09" stop-color="#d7dafc"/><stop offset="0.24" stop-color="#c1c5f7"/><stop offset="0.42" stop-color="#9da1ef"/><stop offset="0.63" stop-color="#6a71e3"/><stop offset="0.86" stop-color="#2b33d4"/><stop offset="1" stop-color="#0009ca"/></radialGradient><linearGradient id="linear-gradient" x1="195.1" y1="187.79" x2="362.71" y2="419.79" gradientUnits="userSpaceOnUse"><stop offset="0" stop-color="#9fc2ff"/><stop offset="1" stop-color="#09007d"/></linearGradient><linearGradient id="linear-gradient-2" x1="200.68" y1="101.87" x2="393.86" y2="264.82" xlink:href="#linear-gradient"/><linearGradient id="linear-gradient-3" x1="215.13" y1="112.37" x2="344.9" y2="247.05" xlink:href="#linear-gradient"/></defs><path class="cls-1" d="M635.72,175.77q18-9.37,40.79-9.38a90.17,90.17,0,0,1,81.21,48.73Q770,238.22,770,268.18t-12.27,53.6Q745.45,345.42,724,358.6a88.94,88.94,0,0,1-47.46,13.17q-22.75,0-40.43-9.2T607.2,339.65V467.5H566.05V169.64H607.2v29.23Q617.67,185.16,635.72,175.77Zm83.92,56.85a58.28,58.28,0,0,0-22.38-22.74,60.16,60.16,0,0,0-29.78-7.76,58.42,58.42,0,0,0-29.42,7.94,59.21,59.21,0,0,0-22.38,23.1q-8.48,15.17-8.48,35.74t8.48,35.91q8.48,15.36,22.38,23.29a58.57,58.57,0,0,0,59.2-.18q13.89-8.13,22.38-23.65t8.48-36.09Q728.12,247.6,719.64,232.62Z"/><path class="cls-1" d="M869.44,174.87q15-8.48,35.55-8.48V209H894.52q-24.18,0-36.63,12.27t-12.46,42.6V371H804.28V169.64h41.15v28.87A64.73,64.73,0,0,1,869.44,174.87Z"/><path class="cls-1" d="M988.19,359a92,92,0,0,1-35.74-36.1q-13-23.28-13-54,0-30.31,13.35-53.78A92.31,92.31,0,0,1,989.27,179q23.1-12.63,51.62-12.63T1092.5,179a92.37,92.37,0,0,1,36.46,36.1q13.35,23.46,13.36,53.78t-13.72,53.78A95,95,0,0,1,1091.24,359q-23.64,12.81-52.16,12.81Q1010.93,371.77,988.19,359Zm80.67-30.5q13.89-7.59,22.56-22.74t8.66-36.82q0-21.66-8.3-36.64t-22-22.56a60.27,60.27,0,0,0-29.6-7.58,59.2,59.2,0,0,0-29.41,7.58q-13.54,7.59-21.48,22.56t-7.94,36.64q0,32.13,16.42,49.63T1039.08,336A61.28,61.28,0,0,0,1068.86,328.46Z"/><path class="cls-1" d="M1311.42,175.59q17.86,9.21,28,22.92V169.64h41.51V371.77c0,18.29-3.85,35.39-11.55,49.71A83.68,83.68,0,0,1,1336,455.23q-21.85,12.27-52.16,12.27-40.43,0-67.14-18.95t-30.32-51.44h40.79q4.68,15.52,20,25.09t36.64,9.57q24.9,0,40.25-15.17c10.22-10.1,15.34-25.58,15.34-44.83v-33.2q-10.49,14.07-28.34,23.64t-40.61,9.56A88.92,88.92,0,0,1,1223,358.6q-21.48-13.17-33.93-36.82t-12.46-53.6q0-30,12.46-53.06a90.71,90.71,0,0,1,81.39-48.73Q1293.55,166.39,1311.42,175.59Zm19.49,57.57a59.6,59.6,0,0,0-22.19-23.1,58.16,58.16,0,0,0-29.6-7.94,58.36,58.36,0,0,0-51.8,30.5q-8.49,15-8.48,35.56t8.48,36.09q8.48,15.53,22.38,23.65a57.43,57.43,0,0,0,29.42,8.12,58.16,58.16,0,0,0,29.6-7.94q13.71-7.94,22.19-23.29t8.49-35.91Q1339.4,248.32,1330.91,233.16Z"/><path class="cls-1" d="M1609.75,284.42h-152q1.8,23.82,17.69,38.26t39,14.44q33.21,0,46.93-27.79h44.39a89.54,89.54,0,0,1-32.66,44.94q-23.65,17.5-58.66,17.5-28.51,0-51.08-12.81a91.14,91.14,0,0,1-35.37-36.1q-12.81-23.28-12.81-54t12.45-54a87.62,87.62,0,0,1,35-35.92q22.56-12.63,51.8-12.63,28.15,0,50.17,12.27a86.68,86.68,0,0,1,34.29,34.47q12.27,22.2,12.28,51.08A128.81,128.81,0,0,1,1609.75,284.42Zm-41.51-33.21q-.36-22.74-16.24-36.45T1512.66,201q-21.32,0-36.46,13.54t-18,36.63Z"/><path class="cls-1" d="M1787.88,176.13A69.39,69.39,0,0,1,1816.94,205q10.47,19.14,10.47,46.2V371.84h-40.79V257.35q0-26.72-13.36-41t-36.45-14.26q-23.1,0-36.64,14.26t-13.53,41V371.84h-41.15V169.64h41.15v22.74a68.08,68.08,0,0,1,25.8-19.13,82.56,82.56,0,0,1,33.39-6.86Q1769.29,166.39,1787.88,176.13Z"/><path class="cls-2" d="M447.26,348.81c-.34,1.06-.69,2.13-1.05,3.19h0c-.38,1.15-.78,2.29-1.2,3.43A170.4,170.4,0,0,1,284.77,467.61H261a21.29,21.29,0,0,0,20.88-17l15.21-73.1A170.57,170.57,0,0,0,438.2,359.88l.6-.38.23-.15A21.36,21.36,0,0,0,447.26,348.81Z"/><path class="cls-3" d="M462.41,280.35l-10.5,50.49a.11.11,0,0,0,0,.06l-.13.6q-1.62,7.88-3.95,15.51c0,.08-.05.17-.08.25a.19.19,0,0,0,0,.07s0,0,0,.05l0,.06c-.11.34-.21.68-.31,1a.14.14,0,0,0,0,.09l-.09.27A21.36,21.36,0,0,1,439,359.35l-.23.15-.6.38a169.37,169.37,0,0,1-59.7,22.86,171.68,171.68,0,0,1-81.44-5.25l-15.21,73.1a21.29,21.29,0,0,1-20.88,17H207.7a21.33,21.33,0,0,1-21.09-24.32s0,0,0,0l.55-2.65a.19.19,0,0,1,0-.07,20,20,0,0,1,1-2.87l-.38-.26L212.69,318l7.83-37.63H462.41Z"/><polygon class="cls-4" points="495.65 224.57 487.12 265.55 245.22 265.55 250.08 242.22 250.35 240.91 253.75 224.57 495.65 224.57"/><path class="cls-5" d="M418.13,190.09c0,.28,0,.56,0,.85a23.28,23.28,0,0,1-.31,2.92c-.07.35-.14.7-.22,1l-3.09,14.86H172.59l4.88-23.45a2,2,0,0,0,.05-.24l.13-.59a1.55,1.55,0,0,1,0-.21,21.3,21.3,0,0,1,20.08-16.49H397.51A21.31,21.31,0,0,1,418.13,190.09Z"/></svg>