<svg width="30" height="29" viewBox="0 0 30 29" fill="none" xmlns="http://www.w3.org/2000/svg">
<path d="M24 0C24.3978 0 24.7794 0.158035 25.0607 0.43934C25.342 0.720644 25.5 1.10218 25.5 1.5V4.5H28.5C28.8978 4.5 29.2794 4.65804 29.5607 4.93934C29.842 5.22064 30 5.60218 30 6C30 6.39782 29.842 6.77936 29.5607 7.06066C29.2794 7.34196 28.8978 7.5 28.5 7.5H25.5V10.5C25.5 10.8978 25.342 11.2794 25.0607 11.5607C24.7794 11.842 24.3978 12 24 12C23.6022 12 23.2206 11.842 22.9393 11.5607C22.658 11.2794 22.5 10.8978 22.5 10.5V7.5H19.5C19.1022 7.5 18.7206 7.34196 18.4393 7.06066C18.158 6.77936 18 6.39782 18 6C18 5.60218 18.158 5.22064 18.4393 4.93934C18.7206 4.65804 19.1022 4.5 19.5 4.5H22.5V1.5C22.5 1.10218 22.658 0.720644 22.9393 0.43934C23.2206 0.158035 23.6022 0 24 0Z" fill="#F2F2F2"/>
<path d="M3.5 1C2.57174 1 1.6815 1.36875 1.02513 2.02513C0.368749 2.6815 0 3.57174 0 4.5V25.5C0 27.432 1.568 29 3.5 29H24.5C25.4283 29 26.3185 28.6313 26.9749 27.9749C27.6313 27.3185 28 26.4283 28 25.5V16.5C28 15.5717 27.6313 14.6815 26.9749 14.0251C26.3185 13.3687 25.4283 13 24.5 13H16.5C16.3674 13 16.2402 12.9473 16.1464 12.8536C16.0527 12.7598 16 12.6326 16 12.5V4.5C16 3.57174 15.6313 2.6815 14.9749 2.02513C14.3185 1.36875 13.4283 1 12.5 1H3.5ZM3 4.5C3 4.36739 3.05268 4.24021 3.14645 4.14645C3.24021 4.05268 3.36739 4 3.5 4H12.5C12.6326 4 12.7598 4.05268 12.8536 4.14645C12.9473 4.24021 13 4.36739 13 4.5V12.5C13 12.67 13.012 12.836 13.036 13H3V4.5ZM13 16V26H3.5C3.36739 26 3.24021 25.9473 3.14645 25.8536C3.05268 25.7598 3 25.6326 3 25.5V16H13ZM16 26V15.964C16.164 15.988 16.33 16 16.5 16H24.5C24.6326 16 24.7598 16.0527 24.8536 16.1464C24.9473 16.2402 25 16.3674 25 16.5V25.5C25 25.6326 24.9473 25.7598 24.8536 25.8536C24.7598 25.9473 24.6326 26 24.5 26H16Z" fill="#F2F2F2"/>
</svg>
